<svg height="2771.8586" width="2771.8586" xmlns="http://www.w3.org/2000/svg" xmlns:xlink="http://www.w3.org/1999/xlink"><filter id="a" color-interpolation-filters="sRGB" height="1.685714" width="1.685714" x="-.342857" y="-.342857"><feGaussianBlur stdDeviation="86.122445"/></filter><g fill="#ff0"><path d="m1272.792236 2771.858887h226.27417l-113.137085-1436.84082zm0-2771.858647h226.27417l-113.137085 1436.841069z"/><path d="m917.942383 2695.352051 218.563965 58.563965 262.599854-1417.164063-481.163818 1358.600098zm717.40979-2677.40991 218.564087 58.564207-481.16394 1358.599609 262.599854-1417.163816z"/><path d="m594.984985 2529.61084 195.959229 113.137207 620.440918-1300.909668-816.400146 1187.772461zm1385.929321-2400.5 195.959229 113.137207-816.400146 1187.772461 620.440918-1300.909668z"/><path d="m324.929321 2285.929199 160 160 936.000122-1096zm1959.999878-1960 160 160-1095.999878 936z"/><path d="m129.113159 1980.914063 113.130127 195.959961 1187.779907-816.400391zm2400.498169-1385.930176 113.136475 195.959961-1300.904541 620.439941z"/><path d="m17.943239 1635.354004 58.560064 218.560059 1358.599846-481.160156-1417.15991 262.600098zm2677.4093-717.410156 58.563721 218.560059-1417.162964 262.599609 1358.598755-481.159668z"/><path d="m.0033 1272.793945v226.27002l1436.83984-113.130371-1436.83984-113.139648zm2771.855098 0v226.27002l-1436.845093-113.130371 1436.845093-113.139648z"/><path d="m76.503304 917.943848-58.560064 218.560059 1417.15991 262.599609-1358.599846-481.159668zm2677.412956 717.410156-58.564209 218.560059-1358.598755-481.160156 1417.162964 262.600098z"/><path d="m242.243286 594.983887-113.130127 195.959961 1300.910034 620.439941zm2400.504517 1385.930176-113.136475 195.959961-1187.768066-816.400391z"/><path d="m485.933228 325.933838-160 160 1096 936.000244zm1959.995972 1960.000244-160 160-935.995972-1096.000488z"/><path d="m788.944336 130.11084-195.959106 113.137207 816.400024 1187.772461zm1385.929199 2400.5-195.958984 113.137207-620.44104-1300.909668z"/><path d="m1136.50647 17.942381-218.564087 58.563967 481.16394 1358.600098-262.599854-1417.164064zm717.40979 2677.410158-218.564087 58.563965-262.599854-1417.164063 481.16394 1358.600098z"/></g><path d="m1687.35791 1350.473267c0 166.474365-134.954224 301.428589-301.428589 301.428589s-301.428467-134.954224-301.428467-301.428589c0-166.474487 134.954102-301.428589 301.428467-301.428589s301.428589 134.954102 301.428589 301.428589z" style="stroke-linejoin:round;stroke-linecap:round;stroke-width:3;stroke:#fff;fill:#f8f6ae;filter:url(#a)"/></svg>